<svg height="2222" width="720" xmlns="http://www.w3.org/2000/svg">
<rect height="2222" fill="#555" width="720"></rect>
<text fill="#7f7" font-family="Courier New" font-size="12" xml:space="preserve">
<tspan x="10" y="26"></tspan>
<tspan x="10" y="42">&gt; npmdoc-node-uuid@0.0.4 test /home/travis/build/npmdoc/node-npmdoc-node-uuid</tspan>
<tspan x="10" y="58">&gt; (set -e; export PORT=$(utility2 shServerPortRandom); utility2 test test.js)</tspan>
<tspan x="10" y="74"></tspan>
<tspan x="10" y="90"></tspan>
<tspan x="10" y="106">[MODE_BUILD=npmTest] - 2017-04-08T05:58:38Z - npm-testing /home/travis/build/npmdoc/node-npmdoc-\</tspan>
<tspan x="10" y="122">node-uuid</tspan>
<tspan x="10" y="138"></tspan>
<tspan x="10" y="154"></tspan>
<tspan x="10" y="170">covering $ /home/travis/.nvm/versions/node/v6.10.2/bin/node /home/travis/build/npmdoc/node-npmdo\</tspan>
<tspan x="10" y="186">c-node-uuid/test.js</tspan>
<tspan x="10" y="202">merging file:///home/travis/build/npmdoc/node-npmdoc-node-uuid/tmp/build/test-report.json to tes\</tspan>
<tspan x="10" y="218">t-report</tspan>
<tspan x="10" y="234">&gt; server listening on http-port 49744</tspan>
<tspan x="10" y="250">uuid require failed - skipping tests</tspan>
<tspan x="10" y="266">uuid-js require failed - skipping tests</tspan>
<tspan x="10" y="282"># v4</tspan>
<tspan x="10" y="298">nodeuuid.v4() - using node.js crypto RNG: 377358 uuids/second</tspan>
<tspan x="10" y="314">nodeuuid.v4() - using Math.random() RNG: 318471 uuids/second</tspan>
<tspan x="10" y="330">nodeuuid.v4('binary'): 351370 uuids/second</tspan>
<tspan x="10" y="346">nodeuuid.v4('binary', buffer): 347705 uuids/second</tspan>
<tspan x="10" y="362">140byte.es_v4: 277777 uuids/second</tspan>
<tspan x="10" y="378"></tspan>
<tspan x="10" y="394"># v1</tspan>
<tspan x="10" y="410">nodeuuid.v1(): 1412429 uuids/second</tspan>
<tspan x="10" y="426">nodeuuid.v1('binary'): 1453488 uuids/second</tspan>
<tspan x="10" y="442">nodeuuid.v1('binary', buffer): 644329 uuids/second</tspan>
<tspan x="10" y="458">created apidoc file:///home/travis/build/npmdoc/node-npmdoc-node-uuid/tmp/build/apidoc.html</tspan>
<tspan x="10" y="474"></tspan>
<tspan x="10" y="490"></tspan>
<tspan x="10" y="506">browserTest - created electron entry-page /home/travis/build/npmdoc/node-npmdoc-node-uuid/tmp/el\</tspan>
<tspan x="10" y="522">ectron.15b4c24bd740.c001fadc9e021.html</tspan>
<tspan x="10" y="538"></tspan>
<tspan x="10" y="554">[node test-case 1 of 6 passed] - testCase_buildLib_default</tspan>
<tspan x="10" y="570">[node test-case 2 of 6 passed] - testCase_buildReadme_default</tspan>
<tspan x="10" y="586">[node test-case 3 of 6 passed] - testCase_buildTest_default</tspan>
<tspan x="10" y="602"></tspan>
<tspan x="10" y="618">browserTest - created electron entry-page /home/travis/build/npmdoc/node-npmdoc-node-uuid/tmp/el\</tspan>
<tspan x="10" y="634">ectron.15b4c24bddb0.08584109ac25d.html</tspan>
<tspan x="10" y="650"></tspan>
<tspan x="10" y="666">Xlib:  extension "RANDR" missing on display ":99.0".</tspan>
<tspan x="10" y="682">Xlib:  extension "RANDR" missing on display ":99.0".</tspan>
<tspan x="10" y="698">merging file:///home/travis/build/npmdoc/node-npmdoc-node-uuid/tmp/build/test-report.json to tes\</tspan>
<tspan x="10" y="714">t-report</tspan>
<tspan x="10" y="730">&gt; Xlib:  extension "RANDR" missing on display ":99.0".</tspan>
<tspan x="10" y="746">server listening on http-port 49946</tspan>
<tspan x="10" y="762">[4757:0408/055849:WARNING:audio_manager.cc(314)] Multiple instances of AudioManager detected</tspan>
<tspan x="10" y="778">[4757:0408/055849:WARNING:audio_manager.cc(275)] Multiple instances of AudioManager detected</tspan>
<tspan x="10" y="794">[4800:0408/055849:ERROR:sandbox_linux.cc(343)] InitializeSandbox() called with multiple threads \</tspan>
<tspan x="10" y="810">in process gpu-process. </tspan>
<tspan x="10" y="826">merging file:///home/travis/build/npmdoc/node-npmdoc-node-uuid/tmp/build/test-report.json to tes\</tspan>
<tspan x="10" y="842">t-report</tspan>
<tspan x="10" y="858">Xlib:  extension "RANDR" missing on display ":99.0".</tspan>
<tspan x="10" y="874">[4768:0408/055849:WARNING:audio_manager.cc(314)] Multiple instances of AudioManager detected</tspan>
<tspan x="10" y="890">[4768:0408/055849:WARNING:audio_manager.cc(275)] Multiple instances of AudioManager detected</tspan>
<tspan x="10" y="906">[4833:0408/055849:ERROR:sandbox_linux.cc(343)] InitializeSandbox() called with multiple threads \</tspan>
<tspan x="10" y="922">in process gpu-process. </tspan>
<tspan x="10" y="938">[4768:0408/055849:ERROR:browser_gpu_channel_host_factory.cc(131)] Failed to create channel.</tspan>
<tspan x="10" y="954"></tspan>
<tspan x="10" y="970">browserTest - opened url /home/travis/build/npmdoc/node-npmdoc-node-uuid/tmp/build/apidoc.html</tspan>
<tspan x="10" y="986"></tspan>
<tspan x="10" y="1002"></tspan>
<tspan x="10" y="1018">browserTest - opened url http://127.0.0.1:49744?modeTest=1</tspan>
<tspan x="10" y="1034"></tspan>
<tspan x="10" y="1050">[4768:0408/055851:INFO:CONSOLE(248)] "----------|-----------|-----------|-----------|-----------\</tspan>
<tspan x="10" y="1066">|</tspan>
<tspan x="10" y="1082">File      |   % Stmts |% Branches |   % Funcs |   % Lines |</tspan>
<tspan x="10" y="1098">----------|-----------|-----------|-----------|-----------|</tspan>
<tspan x="10" y="1114">----------|-----------|-----------|-----------|-----------|</tspan>
<tspan x="10" y="1130">All files |       100 |       100 |       100 |       100 |</tspan>
<tspan x="10" y="1146">----------|-----------|-----------|-----------|-----------|</tspan>
<tspan x="10" y="1162">", source: file:///home/travis/build/npmdoc/node-npmdoc-node-uuid/tmp/electron.15b4c24bddb0.0858\</tspan>
<tspan x="10" y="1178">4109ac25d.html (248)</tspan>
<tspan x="10" y="1194">[4768:0408/055851:INFO:CONSOLE(248)] "created coverage file:///tmp/build/coverage.html/index.htm\</tspan>
<tspan x="10" y="1210">l", source: file:///home/travis/build/npmdoc/node-npmdoc-node-uuid/tmp/electron.15b4c24bddb0.085\</tspan>
<tspan x="10" y="1226">84109ac25d.html (248)</tspan>
<tspan x="10" y="1242">[node test-case 4 of 6 passed] - testCase_buildApp_default</tspan>
<tspan x="10" y="1258"></tspan>
<tspan x="10" y="1274">browserTest - created screenCapture file:///home/travis/build/npmdoc/node-npmdoc-node-uuid/tmp/b\</tspan>
<tspan x="10" y="1290">uild/screenCapture.npmTest.browser.%2Fhome%2Ftravis%2Fbuild%2Fnpmdoc%2Fnode-npmdoc-node-uuid%2Ft\</tspan>
<tspan x="10" y="1306">mp%2Fbuild%2Fapidoc.html.png</tspan>
<tspan x="10" y="1322"></tspan>
<tspan x="10" y="1338">browserTest - created screenCapture file:///home/travis/build/npmdoc/node-npmdoc-node-uuid/tmp/b\</tspan>
<tspan x="10" y="1354">uild/screenCapture.npmTest.browser.%2Fhome%2Ftravis%2Fbuild%2Fnpmdoc%2Fnode-npmdoc-node-uuid%2Ft\</tspan>
<tspan x="10" y="1370">mp%2Fbuild%2Fapidoc.html.html</tspan>
<tspan x="10" y="1386"></tspan>
<tspan x="10" y="1402">browserTest - exit-code 0 - /home/travis/build/npmdoc/node-npmdoc-node-uuid/tmp/build/apidoc.htm\</tspan>
<tspan x="10" y="1418">l</tspan>
<tspan x="10" y="1434"></tspan>
<tspan x="10" y="1450">[node test-case 5 of 6 passed] - testCase_buildApidoc_default</tspan>
<tspan x="10" y="1466"></tspan>
<tspan x="10" y="1482">browserTest - created screenCapture file:///home/travis/build/npmdoc/node-npmdoc-node-uuid/tmp/b\</tspan>
<tspan x="10" y="1498">uild/screenCapture.npmTest.browser.%2F.png</tspan>
<tspan x="10" y="1514"></tspan>
<tspan x="10" y="1530">browserTest - created screenCapture file:///home/travis/build/npmdoc/node-npmdoc-node-uuid/tmp/b\</tspan>
<tspan x="10" y="1546">uild/screenCapture.npmTest.browser.%2F.html</tspan>
<tspan x="10" y="1562"></tspan>
<tspan x="10" y="1578">browserTest - exit-code 0 - http://127.0.0.1:49744?modeTest=1</tspan>
<tspan x="10" y="1594"></tspan>
<tspan x="10" y="1610"></tspan>
<tspan x="10" y="1626">browserTest - merged coverage from /home/travis/build/npmdoc/node-npmdoc-node-uuid/tmp/coverage.\</tspan>
<tspan x="10" y="1642">npmTest.browser.%2F.json</tspan>
<tspan x="10" y="1658"></tspan>
<tspan x="10" y="1674"></tspan>
<tspan x="10" y="1690">browserTest - merging test-report from /home/travis/build/npmdoc/node-npmdoc-node-uuid/tmp/test-\</tspan>
<tspan x="10" y="1706">report.npmTest.browser.%2F.json</tspan>
<tspan x="10" y="1722"></tspan>
<tspan x="10" y="1738">[node test-case 6 of 6 passed] - testCase_webpage_default</tspan>
<tspan x="10" y="1754">------------------------------|-----------|-----------|-----------|-----------|</tspan>
<tspan x="10" y="1770">File                          |   % Stmts |% Branches |   % Funcs |   % Lines |</tspan>
<tspan x="10" y="1786">------------------------------|-----------|-----------|-----------|-----------|</tspan>
<tspan x="10" y="1802">   node-npmdoc-node-uuid/     |       100 |       100 |       100 |       100 |</tspan>
<tspan x="10" y="1818">      example.js              |       100 |       100 |       100 |       100 |</tspan>
<tspan x="10" y="1834">      lib.npmdoc_node_uuid.js |       100 |       100 |       100 |       100 |</tspan>
<tspan x="10" y="1850">      test.js                 |       100 |       100 |       100 |       100 |</tspan>
<tspan x="10" y="1866">------------------------------|-----------|-----------|-----------|-----------|</tspan>
<tspan x="10" y="1882">All files                     |       100 |       100 |       100 |       100 |</tspan>
<tspan x="10" y="1898">------------------------------|-----------|-----------|-----------|-----------|</tspan>
<tspan x="10" y="1914"></tspan>
<tspan x="10" y="1930">created coverage file:///home/travis/build/npmdoc/node-npmdoc-node-uuid/tmp/build/coverage.html/\</tspan>
<tspan x="10" y="1946">index.html</tspan>
<tspan x="10" y="1962">merging file:///home/travis/build/npmdoc/node-npmdoc-node-uuid/tmp/build/test-report.json to tes\</tspan>
<tspan x="10" y="1978">t-report</tspan>
<tspan x="10" y="1994"></tspan>
<tspan x="10" y="2010">-------------------------------------------------------</tspan>
<tspan x="10" y="2026">| test-report - buildNpmdoc - node - linux v6.10.2 - 2017-04-08T05:58:07.905Z</tspan>
<tspan x="10" y="2042">|   55321 ms            0 failed        6 passed      |</tspan>
<tspan x="10" y="2058">-------------------------------------------------------</tspan>
<tspan x="10" y="2074"></tspan>
<tspan x="10" y="2090">created test-report file:///home/travis/build/npmdoc/node-npmdoc-node-uuid/tmp/build/test-report\</tspan>
<tspan x="10" y="2106">.html</tspan>
<tspan x="10" y="2122"></tspan>
<tspan x="10" y="2138"></tspan>
<tspan x="10" y="2154">npmTest - 0 failed tests</tspan>
<tspan x="10" y="2170"></tspan>
<tspan x="10" y="2186"></tspan>
<tspan x="10" y="2202">[MODE_BUILD=npmTest] - 2017-04-08T05:59:06Z - EXIT_CODE - 0</tspan>
</text>
</svg>
